<?xml version="1.0" encoding="UTF-8" standalone="no"?>
<!-- Created with Inkscape (http://www.inkscape.org/) -->

<svg
   xmlns:dc="http://purl.org/dc/elements/1.1/"
   xmlns:cc="http://creativecommons.org/ns#"
   xmlns:rdf="http://www.w3.org/1999/02/22-rdf-syntax-ns#"
   xmlns:svg="http://www.w3.org/2000/svg"
   xmlns="http://www.w3.org/2000/svg"
   xmlns:sodipodi="http://sodipodi.sourceforge.net/DTD/sodipodi-0.dtd"
   xmlns:inkscape="http://www.inkscape.org/namespaces/inkscape"
   width="96"
   height="96"
   id="svg2"
   version="1.1"
   inkscape:version="0.48.1 "
   sodipodi:docname="memoscope.svg"
   inkscape:export-filename="E:\Fred\Workspace\_Net\MemoScope.Net\MemoScope\Icons\Logos\memoscope.png"
   inkscape:export-xdpi="90"
   inkscape:export-ydpi="90">
  <defs
     id="defs4" />
  <sodipodi:namedview
     id="base"
     pagecolor="#ffffff"
     bordercolor="#666666"
     borderopacity="1.0"
     inkscape:pageopacity="0.0"
     inkscape:pageshadow="2"
     inkscape:zoom="3.959798"
     inkscape:cx="86.597726"
     inkscape:cy="47.320297"
     inkscape:document-units="px"
     inkscape:current-layer="layer2"
     showgrid="false"
     inkscape:window-width="1804"
     inkscape:window-height="637"
     inkscape:window-x="98"
     inkscape:window-y="407"
     inkscape:window-maximized="0"
     inkscape:snap-page="true" />
  <metadata
     id="metadata7">
    <rdf:RDF>
      <cc:Work
         rdf:about="">
        <dc:format>image/svg+xml</dc:format>
        <dc:type
           rdf:resource="http://purl.org/dc/dcmitype/StillImage" />
        <dc:title></dc:title>
      </cc:Work>
    </rdf:RDF>
  </metadata>
  <g
     inkscape:groupmode="layer"
     id="layer2"
     inkscape:label="Texte">
    <text
       xml:space="preserve"
       style="font-size:30.89846611000000100px;font-style:normal;font-variant:normal;font-weight:bold;font-stretch:normal;text-align:start;line-height:80.00000119000000600%;letter-spacing:0px;word-spacing:0px;writing-mode:lr-tb;text-anchor:start;fill:#ff0000;fill-opacity:1;stroke:none;font-family:Sans;-inkscape-font-specification:Sans Bold"
       x="1.9318221"
       y="25.645412"
       id="text3046"
       sodipodi:linespacing="80.000001%"
       transform="scale(1.0417236,0.95994749)"><tspan
         sodipodi:role="line"
         id="tspan3054"
         x="1.9318221"
         y="25.645412">01100</tspan><tspan
         sodipodi:role="line"
         id="tspan3056"
         x="1.9318221"
         y="50.364185">11001</tspan><tspan
         sodipodi:role="line"
         id="tspan3058"
         x="1.9318221"
         y="75.082962">01110</tspan><tspan
         sodipodi:role="line"
         id="tspan3060"
         x="1.9318221"
         y="99.801735">00100</tspan></text>
  </g>
  <g
     inkscape:label="Calque 1"
     inkscape:groupmode="layer"
     id="layer1"
     transform="translate(0,-956.36218)">
    <path
       style="fill:#0e0e0e"
       d="m 11.385823,1051.2645 c 0,-1.7685 0.835462,-3.0916 2.542351,-4.0265 1.194464,-0.6542 1.287902,-0.6671 5.619571,-0.7761 l 4.404913,-0.1109 2.917736,-4.8356 c 3.970048,-6.5796 4.455432,-6.9231 9.765106,-6.9108 3.082614,0.01 4.418245,0.3506 5.781308,1.4861 l 6.53301,10.2603 15.240872,0.1109 c 16.702704,0.1215 15.993325,0.062 17.722172,1.477 1.092737,0.8942 1.655651,2.086 1.655651,3.5053 l 0,1.2268 -72.18269,0 z m 36.007291,-11.7963 -0.919795,-1.4497 1.785808,-0.6321 c 0.982192,-0.3477 2.921987,-1.0425 4.31065,-1.544 1.388664,-0.5015 2.823713,-0.9118 3.188998,-0.9118 1.36322,0 2.496071,2.188 1.474161,2.8472 -0.420542,0.2712 -8.374288,3.1402 -8.705806,3.1402 -0.117823,0 -0.628129,-0.6524 -1.134016,-1.4498 z m 6.915077,1.1353 c -0.675345,-0.3838 -0.737773,-0.3381 1.819854,-1.3334 1.710946,-0.6658 2.166545,-0.9575 2.518517,-1.6123 0.387518,-0.7208 0.383321,-0.8937 -0.04276,-1.7608 -0.959865,-1.9536 -2.557153,-2.2862 -5.705797,-1.1881 -1.049228,0.3659 -1.959914,0.6652 -2.023746,0.6652 -0.397758,0 -0.0069,-1.1431 0.525884,-1.5379 0.884603,-0.6556 15.010772,-5.7651 15.961287,-5.7733 0.422776,0 1.082181,0.2179 1.465345,0.4923 0.723037,0.5178 3.329457,4.687 3.329457,5.3257 0,0.7042 -0.659339,1.4754 -1.537395,1.7982 -15.278623,5.6173 -15.1564,5.5804 -16.310644,4.9244 z m -28.884335,-7.409 c -3.318318,-3.8934 -4.901542,-7.1104 -5.513648,-11.2032 -0.744466,-4.9779 1.095893,-10.3404 5.2428,-15.2766 2.320294,-2.7619 4.465792,-4.6755 8.89115,-7.93006 4.240285,-3.1185 5.032067,-7.1314 2.110987,-10.699 -1.927041,-2.3535 -6.392676,-4.0112 -9.753402,-3.6205 l -1.784527,0.078 -8.47113,-14.6008 13.118562,-4.7863 c 0.242135,-0.088 21.508614,38.79096 21.422111,38.85816 -0.0615,0.048 -2.413663,0.9325 -5.227039,1.9659 l -5.115228,1.8791 -0.990857,-1.5457 c -0.544971,-0.8502 -1.122718,-1.5131 -1.283882,-1.4733 -0.527111,0.1302 -3.541688,3.5479 -4.841693,5.4891 -2.041227,3.048 -2.805473,5.3514 -2.828095,8.5239 -0.0226,3.1696 0.41367,4.6571 2.21121,7.5397 1.816068,2.9122 2.626742,3.4417 5.255453,3.4325 1.956317,-0.01 3.767315,-0.5826 17.349789,-5.5155 13.785612,-5.0068 13.309766,-4.905 14.378785,-3.0745 0.69187,1.1848 0.706837,1.8512 0.05137,2.2874 -0.485721,0.3233 -4.003637,1.6231 -17.461836,6.452 -3.216838,1.1543 -6.168864,2.3439 -6.560058,2.6436 -0.563949,0.4321 -0.711678,0.7686 -0.713267,1.6247 l -0.002,1.0798 -1.106307,-0.7756 c -2.058996,-1.4435 -3.269765,-1.7235 -7.452914,-1.7235 -3.468362,0 -3.801543,0.038 -5.135528,0.59 -0.784594,0.3245 -1.868984,0.9482 -2.409752,1.3859 -0.540768,0.4378 -1.062235,0.796 -1.158817,0.796 -0.09658,0 -1.09659,-1.0806 -2.22224,-2.4014 z m 23.263471,-13.8421 c -0.257452,-0.1525 -1.192295,-1.4747 -2.077432,-2.9383 -2.396323,-3.9623 -2.355093,-3.5103 -0.380591,-4.1725 l 1.705212,-0.5719 1.720068,2.8157 c 0.946038,1.5487 1.788402,3.1288 1.87192,3.5115 0.267709,1.2265 -1.572955,2.1053 -2.839177,1.3555 z m 3.832773,-4.9778 c -0.335002,-0.1021 -2.453684,-3.3865 -2.264922,-3.5112 0.261943,-0.1729 2.568169,-1.0089 2.624024,-0.9511 0.359718,0.3721 1.873297,3.2047 1.873297,3.5059 0,0.6358 -1.365131,1.2206 -2.232399,0.9564 z m -12.993053,-1.8573 c -0.572477,-0.35 -0.751744,-0.6572 -0.751744,-1.2881 0,-0.4557 0.160485,-0.9948 0.356634,-1.1979 0.53909,-0.5582 16.750644,-6.3609 17.78196,-6.3648 1.883041,-0.01 2.888445,2.0509 1.476268,3.0218 -0.914792,0.629 -16.595164,6.2886 -17.422894,6.2886 -0.378665,0 -1.026766,-0.2068 -1.440224,-0.4596 z m -15.78387,-13.94656 c -3.220038,-1.2657 -4.780962,-3.219 -4.790813,-5.9952 -0.0073,-2.0686 0.949673,-3.7559 2.879013,-5.0758 1.603529,-1.0971 3.374938,-1.5769 5.822205,-1.5769 1.556025,0 2.222773,0.1251 3.676296,0.6896 1.949609,0.7573 3.702301,2.2433 4.348396,3.6869 0.590612,1.3197 0.452517,3.7605 -0.279715,4.944 -1.58494,2.5619 -3.972002,3.7971 -7.604044,3.9347 -2.108936,0.08 -2.422722,0.033 -4.051338,-0.6073 z m -9.162123,-30.5051 c -1.537842,-2.4602 -0.626035,-3.4022 5.363981,-5.5414 4.574178,-1.6335 5.646949,-1.7454 7.052455,-0.7354 0.641042,0.4607 1.93677,2.3635 1.72271,2.5299 -0.04603,0.036 -1.365238,0.5318 -2.931568,1.1023 -7.310668,2.6628 -10.114492,3.6485 -10.378253,3.6485 -0.111024,0 -0.48422,-0.4517 -0.829325,-1.0039 z"
       id="path2995-8"
       inkscape:connector-curvature="0"
       sodipodi:nodetypes="ssscssccsssccsscssssssssssssssssssssssssccssscsssssssssssscssssssssscssssscsssssssssssssssssssssssss" />
    <flowRoot
       xml:space="preserve"
       id="flowRoot3037"
       style="font-size:40px;font-style:normal;font-weight:normal;line-height:125%;letter-spacing:0px;word-spacing:0px;fill:#000000;fill-opacity:1;stroke:none;font-family:Sans"
       transform="translate(0,956.36218)"><flowRegion
         id="flowRegion3039"><rect
           id="rect3041"
           width="93.186569"
           height="91.166267"
           x="1.5152289"
           y="4.0761185" /></flowRegion><flowPara
         id="flowPara3043">010010</flowPara></flowRoot>  </g>
</svg>
