<?xml version="1.0" encoding="UTF-8" standalone="no"?>
<!-- Created with Inkscape (http://www.inkscape.org/) -->

<svg
   xmlns:dc="http://purl.org/dc/elements/1.1/"
   xmlns:cc="http://creativecommons.org/ns#"
   xmlns:rdf="http://www.w3.org/1999/02/22-rdf-syntax-ns#"
   xmlns:svg="http://www.w3.org/2000/svg"
   xmlns="http://www.w3.org/2000/svg"
   xmlns:sodipodi="http://sodipodi.sourceforge.net/DTD/sodipodi-0.dtd"
   xmlns:inkscape="http://www.inkscape.org/namespaces/inkscape"
   width="273"
   height="432.76001"
   id="svg3026"
   version="1.1"
   inkscape:version="0.48.1 "
   sodipodi:docname="Microscope_icon_(black).svg"
   inkscape:export-filename="E:\Fred\Workspace\_Net\MemoScope.Net\MemoScope\Icons\Logos\microscope_02.png"
   inkscape:export-xdpi="10"
   inkscape:export-ydpi="10">
  <defs
     id="defs3028" />
  <sodipodi:namedview
     id="base"
     pagecolor="#ffffff"
     bordercolor="#666666"
     borderopacity="1.0"
     inkscape:pageopacity="0.0"
     inkscape:pageshadow="2"
     inkscape:zoom="0.24748737"
     inkscape:cx="-568.45511"
     inkscape:cy="212.50288"
     inkscape:document-units="px"
     inkscape:current-layer="layer1"
     showgrid="false"
     fit-margin-top="0"
     fit-margin-left="0"
     fit-margin-right="0"
     fit-margin-bottom="0"
     inkscape:window-width="1822"
     inkscape:window-height="1053"
     inkscape:window-x="89"
     inkscape:window-y="-9"
     inkscape:window-maximized="1" />
  <metadata
     id="metadata3031">
    <rdf:RDF>
      <cc:Work
         rdf:about="">
        <dc:format>image/svg+xml</dc:format>
        <dc:type
           rdf:resource="http://purl.org/dc/dcmitype/StillImage" />
        <dc:title></dc:title>
      </cc:Work>
    </rdf:RDF>
  </metadata>
  <g
     inkscape:label="Layer 1"
     inkscape:groupmode="layer"
     id="layer1"
     transform="translate(-248.5,-305.98221)">
    <path
       style="fill:#0e0e0e"
       d="m 258.5,722.39951 c 0,-7.97476 2.92829,-13.94156 8.91093,-18.15728 4.18659,-2.95012 4.51409,-3.00831 19.69657,-3.5 l 15.4392,-0.5 10.22665,-21.8061 c 13.915,-29.67071 15.61627,-31.21974 34.22665,-31.16389 10.80455,0.0324 15.48593,1.58064 20.26346,6.70145 l 22.89817,46.26854 53.41919,0.5 c 58.5429,0.54796 56.05653,0.28134 62.11613,6.66072 3.83004,4.03216 5.80305,9.40653 5.80305,15.80716 l 0,5.53212 -253,0 z m 126.20539,-53.19496 -3.22388,-6.53767 6.25925,-2.85057 c 3.44258,-1.56781 10.24155,-4.70085 15.10881,-6.96232 4.86726,-2.26147 9.8971,-4.11176 11.17742,-4.11176 4.77808,0 8.74872,9.86644 5.16693,12.83906 -1.474,1.22331 -29.35184,14.16094 -30.51381,14.16094 -0.41297,0 -2.20159,-2.94195 -3.97472,-6.53768 z m 24.23731,5.11944 c -2.36708,-1.73085 -2.58589,-1.52458 6.37858,-6.013 5.99686,-3.00257 7.59373,-4.31777 8.82739,-7.27033 1.35825,-3.25076 1.34354,-4.03031 -0.14988,-7.94078 -3.36432,-8.80933 -8.96281,-10.30916 -19.99879,-5.35765 -3.67754,1.65 -6.86949,3 -7.09322,3 -1.39414,0 -0.0241,-5.15495 1.84322,-6.93532 3.10053,-2.95618 52.61269,-25.99756 55.94424,-26.03467 1.48183,-0.0165 3.79304,0.98249 5.13603,2.21999 2.53424,2.33518 11.66973,21.13601 11.66973,24.01629 0,3.17561 -2.31098,6.65334 -5.38856,8.1091 -53.55151,25.331 -53.12312,25.1646 -57.16874,22.20637 z M 307.70324,640.91338 c -11.63069,-17.55735 -17.17988,-32.06423 -19.32531,-50.5209 -2.60935,-22.44776 3.8411,-46.62973 18.37599,-68.88942 8.13262,-12.45482 15.65258,-21.08416 31.16344,-35.76084 14.86218,-14.06288 17.63737,-32.15919 7.399,-48.24702 -6.75427,-10.61317 -22.4063,-18.0883 -34.18563,-16.32646 l -6.25476,0.35234 -29.69127,-65.84179 45.9805,-21.58414 c 0.84868,-0.39839 75.38759,174.92761 75.0844,175.2308 -0.21555,0.21555 -8.45988,4.20496 -18.32075,8.86536 L 360,526.66477 l -3.47295,-6.97029 c -1.91012,-3.83366 -3.93512,-6.82335 -4.5,-6.64375 -1.84752,0.58741 -12.4136,15.99941 -16.97011,24.75313 -7.15449,13.74481 -9.83317,24.13215 -9.91246,38.43836 -0.0792,14.29311 1.44991,21.00127 7.75028,34.00001 6.36531,13.13271 9.20672,15.52039 18.42034,15.47891 6.85688,-0.0309 13.20442,-2.62707 60.81093,-24.87217 48.31851,-22.57781 46.65067,-22.11899 50.39758,-13.86417 2.425,5.34254 2.47746,8.34797 0.18005,10.31508 -1.70245,1.45769 -14.03273,7.31929 -61.20366,29.09517 -11.275,5.20497 -21.62184,10.56946 -22.99297,11.92108 -1.97664,1.94852 -2.49443,3.46601 -2.5,7.32681 l -0.007,4.86932 -3.8776,-3.49769 c -7.21677,-6.50968 -11.46051,-7.77234 -26.12243,-7.77234 -12.15659,0 -13.32439,0.17262 -18,2.66071 -2.75,1.46339 -6.55078,4.27589 -8.44617,6.25 -1.89539,1.97411 -3.72313,3.58929 -4.06165,3.58929 -0.33851,0 -3.84354,-4.87298 -7.78894,-10.82885 z m 81.53836,-62.42116 c -0.90237,-0.6875 -4.17899,-6.65 -7.28139,-13.25 -8.3991,-17.86815 -8.25459,-15.8298 -1.33397,-18.81589 l 5.97676,-2.57884 6.02883,12.69736 c 3.31586,6.98356 6.26834,14.10921 6.56107,15.8348 0.93832,5.53108 -5.5132,9.49391 -9.9513,6.11257 z m 13.43385,-22.44713 c -1.17418,-0.46029 -8.60015,-15.27147 -7.93854,-15.83352 0.91811,-0.77997 9.00142,-4.54962 9.19719,-4.28911 1.26081,1.67782 6.5659,14.45158 6.5659,15.80959 0,2.86719 -4.78478,5.50465 -7.82455,4.31304 z m -45.54059,-8.37545 C 355.12833,546.0913 354.5,544.70607 354.5,541.86077 c 0,-2.05496 0.5625,-4.48568 1.25,-5.4016 1.88951,-2.51728 58.71093,-28.68452 62.32569,-28.70204 6.60005,-0.032 10.12399,9.24842 5.17431,13.62673 -3.20634,2.83622 -58.16597,28.35836 -61.06716,28.35836 -1.32722,0 -3.59881,-0.93266 -5.04798,-2.07258 z m -55.32239,-62.89187 c -11.28622,-5.70777 -16.75725,-14.51638 -16.79178,-27.03555 -0.0257,-9.32824 3.3286,-16.93689 10.09093,-22.88934 5.62036,-4.94724 11.82914,-7.11066 20.4068,-7.11066 5.45386,0 7.79081,0.56401 12.8854,3.1098 6.83337,3.41468 12.97655,10.11602 15.24111,16.62593 2.07009,5.95084 1.58607,16.95767 -0.9804,22.29497 -5.55521,11.55274 -13.92185,17.12275 -26.65214,17.74342 -7.39181,0.36038 -8.49163,0.14827 -14.19992,-2.73857 z m -32.1132,-137.56229 c -5.39013,-11.0945 -2.19425,-15.34229 18.80073,-24.98895 16.03247,-7.36651 19.79253,-7.87096 24.71882,-3.31627 2.24685,2.07736 6.78837,10.65812 6.03809,11.40839 -0.16134,0.16134 -4.78515,2.39827 -10.27513,4.97096 -25.62386,12.00773 -35.45125,16.45262 -36.37573,16.45262 -0.38914,0 -1.69719,-2.03704 -2.90678,-4.52675 z"
       id="path2995-8"
       inkscape:connector-curvature="0"
       sodipodi:nodetypes="ssscssccsssccsscssssssssssssssssssssssssccssscsssssssssssscssssssssscssssscsssssssssssssssssssssssss" />
  </g>
</svg>
